<?xml version="1.0" encoding="UTF-8"?>
<svg version="1.1" viewBox="0 0 1942 2048" width="184" height="194"
  xmlns="http://www.w3.org/2000/svg">
  <path transform="translate(0)" d="m0 0h1942v2048h-1942z" fill="#670000"/>
  <path transform="translate(1625,541)" d="m0 0h21l16 1 7 6 2 9v11l-3 11-8 16-8 14-11 16-11 13-14 15-8 10-7 8h-2v2l-13 13-7 8-16 16-17 16-8 7-13 12-8 7v4l11 24 10 24 22 65 16 61 7 35 6 38 6 50v22h-2l-1-3-2-16-1-2-2-15-1-27-8-38-5-25-7-24-7-26-6-21-5-19-16-49-11-27-9-23v-2l-11 8-10 9-11 9-11 10-19 13-8 7-16 12-17 12-12 9-9 7-16 13-10 8-11 9-5 4-5 5-5 4 8 11 8 19 10 33 9 30 10 35 9 37 6 33 3 15v8l-2-4-9-35-8-31-14-49-13-41-10-28-9-27v-4l-19 14-29 20-24 16-11 8-14 9-15 11-18 12-10 7-33 22-5 4h-3v2l-15 9-12 9-24 16-17 12-16 11-6 5 1 5 10 18 11 21 15 33 8 19 8 20 13 31 1 5h-2l-12-21-9-17-7-17-6-13-13-29-16-34-7-15-4 1-11 7-19 14-32 22-17 11-16 10-20 12-14 9-11 6-16 10-20 12-16 9-25 14v2l4 4 10 13 13 19 13 18 10 13 13 19 13 17 11 14 11 13 11 14-1 2-10-10-7-8-11-12-9-11-33-39-12-15-11-19-6-10-9-13-3-4v-2l-7 1-10 6-11 6-21 12-12 6-23 13-25 14-10 6-23 13-36 20-25 12-78 39-28 13-18 8-11 5-21 9-10 4-3 3 10 9 7 8 9 11 5 4 7 8 15 16 9 9 11 9 25 20 13 11 16 13 10 7 24 16 11 8 18 11 16 14-4 1-16-8v-2l-6-2-20-12-14-9-19-14-9-8-14-11-10-9-8-7-11-10-8-7-13-12-11-11-8-7-13-12-10-10-10-13-6-8-6-1-33 13-54 22-21 8-10 4-18 3-26 6-14 2-16 2-8 2-7 2-14-1-19-4-9-4-8-6-6-7-3-7-1-18 2-14 6-19 8-17 15-24 13-21 15-22 10-14 10-12 1 2-15 23-10 14-5 8-9 20-19 38-8 27-2 18 2 8 5 7 13 5 5 1h24l19-5 34-10 31-8 16-6 28-12 35-16 17-9 8-7 4-4 10-2 12-5 39-19 22-11 16-9 18-10 22-12 14-8 16-8 13-7 5-3v-3l-7-10-8-15 1-6 8-5 20-11 13-7 11-7 9-5h2v2l-13 10-12 10-15 8-11 8-3 6 1 6 4 9 7 5 6-2 16-8 33-18 16-8 9-5 16-9 10-6 18-11 10-6 15-10 15-9 11-7 2-3-8-17-5-11 1-3 4 6 5 5 6 9 3 7 11-6 12-7 38-24 15-9 20-13 18-11 15-10 14-9 11-7 15-11 10-7 16-11 20-12 7-6-2-4-1-3h-2l-5-11-4-9v-5l5-4 13-8 23-13 10-7 9-5 17-10 5-2-4 5-16 12-13 10-9 7-7 5-14 7-7 4-2 5v6l6 12 5 3 5-2 17-10 10-7 9-5 17-11 7-5 7-4 23-15 10-6 23-15 8-5 12-8 14-10 5-3 9-6 15-11 6-4h2v-2l11-7 14-10 14-9 17-12 13-10 10-7 18-11 12-8 16-11 12-8 14-10 5-4 8-6 6-5h2v-2l11-8 11-9 11-10 8-7 13-11 17-13 13-12 14-10 19-14 9-7 17-13 13-11 10-9 17-16 14-15 10-10 8-10h2l2-4 10-13 8-13 5-11-1-6-4-4-11-3-5-3-4-1h-9l-19 3-21 4-20 4-44 12-5 2h-4l1-3 8-4 16-5 35-8 37-10z" fill="#A3ABB1"/>
  <path transform="translate(1369,247)" d="m0 0h40l11 2 4 4 2 14v10l-2 14-4 11-10 16-12 16-12 13-5 5-8 7-7 8-23 23-11 9-12 11-11 9-8 7-10 8h-2v5l9 6 18 18 8 7 7 8 16 17 12 13 9 11 14 18 13 18 52 78 7 11 15 25 8 15-1 2-6-8-6-10-7-10-12-19-23-34-13-18-14-19-7-7-9-11-8-10-10-14-9-11-9-12-11-13-12-14-11-12-4-4v-2l-4-2-12-12-2-1-2-3-6 3-13 11-10 8-17 13-9 8-11 9-10 9-11 9-13 11-11 9-10 9-8 6-17 12-9 7v2l8 6 8 9 14 19 10 13 8 11 18 27 14 18 14 19 11 18 9 14 12 20 11 21 18 33 1 7-4-4-10-18-13-22-15-24-9-15-10-13-8-11-11-14-12-18-12-17-6-8-10-13-7-10-6-8-9-11-16-17-3-3-5 1-11 6-18 12-17 11-12 8-17 12-40 25-20 13-18 11-14 9-35 23-21 14-7 6h-2l9 17 9 19 11 19 8 17 11 28 4 13v6l-4-4-8-15-13-30-9-20-20-39-3-6v-2l-7 3-11 6-22 14-11 6-28 17-42 26-15 9-24 14-14 8-33 18-3 3 1 6 6 23 12 36 11 27 14 30 10 28 7 20 5 12 3 10 9 21 8 16 10 23-1 2-10-18-12-25-8-16-13-28-12-29-6-16-18-42-10-25-8-26-6-25-6 2-24 13-14 8-28 15-21 12-24 13-16 9-19 9-14 7-23 11-2 3 6 16 30 102 10 25 12 26 12 22 8 16 11 24 7 13-1 4-4-5-14-26-8-14-9-16-11-23-15-33-9-21-9-29-18-65-3-13v-2l-20 9-27 10-47 15-32 10-23 9h-2l3 25 4 36 8 50 11 47 14 56v5l-2 1-7-18-11-37-9-37-9-43-6-39-3-28v-8l3-9-11 4-33 9-22 3h-44l-13-3-9-7-9-11-6-14-2-6v-14l6-21 10-23 9-14 12-19 13-22 9-13 10-15 1 2-11 19-13 25-8 16-8 18-7 21-4 24v20l4 8 8 4 5 1h21l26-2 26-6 30-10 6-4 3-5 1-11-2-11v-42l3-3 16-3 31-6 22-5h5l-2 2-44 14-20 6-1 3-1 11-2 45 30-10 26-10 35-12 29-13 18-9-1-10-3-16-1-9-5-7 4-4 25-7 80-24 8-2h5l-1 2-25 10-17 6-61 19-6 2 1 9 2 7 1 20 37-18 22-12 25-13 20-11 22-12 31-16 8-5 20-12 6-4 22-14 18-10 16-10 20-12 16-9 6-4 9-5 17-10 19-10 23-12 14-8 18-12 10-7 8-6 14-9 10-7 14-10 11-7 16-10 12-8 24-15 10-6 22-14 10-6 15-10 11-7 30-20 17-12 14-11 5-3 19-14 46-32 24-16 12-9 21-16 12-9 11-9 4-4h2v-2h2l2-4 10-7 11-8 18-14 14-12 11-9 7-7 8-7 8-8 8-7 7-7 8-7 13-13 8-7 11-12 9-16 1-9-3-7-4-1-16-1h-14l-28 2-43 8-19 6-16 6-4-1 6-5 23-10 22-8 13-5 20-4z" fill="#A3ABB1"/>
  <path transform="translate(1707,921)" d="m0 0h13l15 2 11 4 20 5 14 7 9 8 2 4v18l-2 10-10 27-9 16-12 14-3 1-2 4-23 23-7 8-8 10h-2l-2 4-7 8-12 13-29 29-8 7-12 12-6 10-9 5-14 12-10 8-14 11-15 11-13 11-15 11-21 13-7 5-6 7-11 9-13 9-12 8-26 22-12 8-5 6v83l-1 45-1 3-4-1-2-6v-119l-16 10-26 16-11 7-19 14-15 10-16 12-16 11-23 16-17 11-12 8-26 17-25 16-42 28-18 11-20 12-17 10-6 5-16 8-11 6-27 16-45 27-26 14-10 6-7 4-1 2 7 1 20 9 34 17 11 6 25 15 3 3v2l-6-1-27-14-58-29-11-6h-6l-16 9-17 8-22 12-24 13-10 6-24 10-25 12-48 24-28 13-53 24-23 10-34 13-23 8-28 12-19 5-18 4h-20l-14-4-5-5-1-2v-6l9-15 11-16 12-16 13-11 10-9 15-16 7-7h2l-2 5-5 6h-2v2l-7 6-4 6-7 8-8 11-7 11-9 13-8 11-6 13h14l16-5 19-8 21-7 16-5 21-9 12-7 32-16 19-9 19-10 25-13 35-20 16-10 14-10 21-12 10-6 16-8 18-10 14-8 24-13 19-11 1-2-4-1-11-8-14-11-13-11-5-4 1-6 3-3h2l1-5 8-12 12-16 10-13 9-12 5-2-4 8-10 12-8 10-14 19-6 7-3 8 1 5 10 6 24 16 10 6 5 2 19-10 26-15 23-14 15-10 13-9 17-11 16-9 6-5h2l1-4-5-1-14-12-7-8-12-12-11-14-6-8-12-14-9-10-3-5 2-4 8-8 7-8 15-14 10-8 12-10h2l-2 4-9 8-1 2h-2v2l-10 8-7 8-15 15-2 3 1 5 22 22 7 8 10 11 8 10 14 17 9 10 6 1 14-7 23-14 28-17 33-22 22-14 12-7 11-9-8-10-4-11-16-33-11-25-6-15-6-21-1-4 5 1 5 8 5 17 10 24 8 16 13 24 8 16 2 8 1 3 17-9 14-9 20-12 15-10 17-11 75-50 14-9 22-14 8-7 1-1-1-18-1-35-3-17 1-1 50-6h27l1 2-7 3-24 2-28 4-12 3v15l3 30v13l-1 2 14-8 11-7 15-10 13-9 19-14 9-6 15-11 11-9 17-12 12-9 16-13 15-11 12-9 15-11 16-10 10-8 8-7 7-8 46-46 8-7 13-10 14-12 11-12 5-7 5-5 7-8 5-9 8-24-1-6-14-13-14-10-4-3-9-3-25-4-6-1z" fill="#FCFCFC"/>
  <path transform="translate(1777,1008)" d="m0 0 1 2 3 1 1 5-5 10-2 3h-2l-2 5-5 6-5 2v3l-6 4-2 2-7 6-3 4h-2v2l-2 2-4 5-4 2-2 5-4 2-1 3-5 5h-2v3h-2v2l-7 6-2 4-5 4h-2v2h-2l-2 4-19 19-4 5h-2l-2 4-3 1-2 4-5 6h-2v2h-2v3l-2 2 5 4v5h-2v2l-17 2-6 2-13 13h-2l-2 5-9 7h-2l-1 3h-2v2l-5 4h-2v2h-2l-2 5-3 1-2 7-2 3-9 3h-4v2l-11 6h-2l-1 2h-3v2l-7 4-8 5-5 1v2l-5 4h-3v2l-13 9v2l-7 4-10 7h-2v2l-8 6h-2v2h-3v2l-5 3-2 3-3 1-3 3-3 1-3 3h-3v2l-5 2-1 3h-2l-2 4-5 2h-4l-1 2-5 4 1-5 6-7 11-7 14-12 13-11 20-13 10-8 9-8 4-5 23-14 17-12 10-9 13-10 11-8 11-9 9-7 14-12 5-3h3l2-5 6-8 16-16 8-7 30-30 7-8 7-9h2l2-4 11-12 7-8 24-24 10-12z" fill="#940D18"/>
  <path transform="translate(1369,247)" d="m0 0h40l11 2 4 4 2 14v10l-2 14-4 11-10 16-12 16-12 13-5 5-8 7-7 8-23 23-11 9-4 1-1-5 5-1v-2h3v-3h2l1-4 5-7 9-7 24-24 7-8 12-13 4-6h2v-2l6-5 2-5h2l2-10v-9h-6l1-5 4-9-1-9-2-4-4-1-16-1h-14l-28 2-43 8-19 6-16 6-4-1 6-5 23-10 22-8 13-5 20-4z" fill="#A1E2E7"/>
  <path transform="translate(1423,1327)" d="m0 0 2 1-1 13-3 5-3 2-6-2-1 4-6 3-9 3-10 5-7 3-8 3h-2v2h-3v2l-5 4h-3v2l-8 6-5 2v2h-2v2l-14 9-6 3-4 5h-3v2l-2 1v2l-5 1v2l-6 3h-3v2h-3v2l-4 3h-3l-1 3-5 2-3 1v2l-5 3h-2v2l-10 5-3 1v2h-3v2l-10 7h-3v2l-21 12-11 7h-2v2h-3l-1 3-8 4h-2l-2 4-6 3-5 5-9 5-9 4-2 2-5 1-4 4h-3v2h-3l-1 2-11 5-6 3-3 1v2l-5 3-3 3-8 2-1 1-1 10 3 5 4 6v2l-6-1-5-5-5-4v-2l-9 1-3-1-3 1v2h-4v2l-3 1v-3l19-10 5-3 14-9 21-12 13-8 17-11 27-18 20-13 25-16 54-36 23-16 18-13 14-10 13-9 14-10 26-16 18-11z" fill="#940D18"/>
  <path transform="translate(1389,1486)" d="m0 0h29l25 2 20 3 5 2v1h-13l-21-2-23-1h-11l-22 3-26 5-24 6-29 9-20 8-12 5-12 7-8 4-15 10-11 7-17 12-11 9-12 11-8 7-10 8-7 6-5 5-11 12-1-2 1-3h2l2-5 10-13 12-13 4-5 8-7 10-9 12-9 8-7 8-6 23-15 17-10 26-11 28-9 33-8 27-5z" fill="#9FE1E7"/>
  <path transform="translate(877,310)" d="m0 0 3 1-15 5-55 16-39 12-28 10-18 7-18 8-10 4-6 4-14 6-7 5-12 5-15 10-15 9-16 11-11 7-14 11-13 11-9 7-14 13-11 9-20 20-6 7-1-3 6-10 14-15 9-9 8-7 15-13 13-12 9-9 11-8 15-9 27-16 13-8 25-14 27-13 20-8 16-6 21-8 37-12 36-9z" fill="#A0D6DC"/>
  <path transform="translate(264,1300)" d="m0 0 1 2-15 23-10 14-5 8-9 20-19 38-8 27-2 18 2 8 5 7 13 5 5 1v2h15l11 1 1 3h7l19-6h5l-2 2-17 6-5 2-7 1h-21l1 4-17-1-9-4-8-6-6-7-3-7-1-18 2-14 6-19 8-17 15-24 13-21 15-22 10-14z" fill="#9FE3E9"/>
  <path transform="translate(1513,757)" d="m0 0 5 1 13 29 8 20 21 62 16 61 7 35 6 38 6 50v22h-2l-1-3-2-16-1-2-2-15-1-27-8-38-5-25-7-24-7-26-6-21-5-19-16-49-11-27-8-20z" fill="#A0DBE1"/>
  <path transform="translate(794,1662)" d="m0 0 2 1-30 20-21 12-18 10-22 12-54 27-17 9-22 11-19 8-24 7-25 10-14 5-4 1h-11l-3-1 1-5 7-13 9-11 6-9 5-2 3-1 1 2h2v13l1 4 10 2 16-3 4-2 10 2 10-3 8-5 1-2 12-5 8-4 2-2 11-4 12-7 15-7 40-20 6-2v-2l10-4 12-7 5-3 5-2 13-8 6-3 10-7 7-4 9-6z" fill="#940D18"/>
  <path transform="translate(1625,541)" d="m0 0h21l16 1 7 6 2 9v11l-3 11-8 16-6 11h-2l-1-5 1-3h2l1-6 6-13 1-4-4 4-2 3h-2l-2 5-8 6 1-5 7-11 5-11-1-6-4-4-11-3-5-3-4-1h-9l-19 3-21 4-20 4-44 12-5 2h-4l1-3 8-4 16-5 35-8 37-10z" fill="#9FE4EA"/>
  <path transform="translate(848,449)" d="m0 0v3l-9 11-18 18-8 7-14 10-6 3h-2l-2 10 7 16 13 30 11 26 10 21 10 19 5 11 5 13 4 10-1 3-6-8-11-21-10-19-11-23-7-15-9-19-8-18-8-21-2-7v-5l6-4h2v-2l12-9 15-13 6-5 6-7 8-7 10-7z" fill="#A1DCE2"/>
  <path transform="translate(941,317)" d="m0 0 1 3-5 12-12 25-5 7 1 6 7 9 10 9 16 12 11 9 13 13 7 8 15 15 8 7 13 12 51 51 8 11h-3l-19-19-11-9-14-13-8-7-10-9-16-17-9-9-8-7-15-13-11-9-10-11-7-8-2-1v-2h-2l-5-5-13-11-3-5 1-7h2l2-9 7-14 9-15z" fill="#A0DAE0"/>
  <path transform="translate(1718,1040)" d="m0 0h6l-4 4-10 8-15 14-55 55-13 9-13 8-12 9-13 10-16 12-14 11-16 12-14 10-10 8-16 12-12 8-19 14-33 22-11 6-5 2v-20l2 4 2 3h4l3-3h10l8-6 5-5 6-3 5-4 14-10 8-5 6-5 6-4 3-3h3v-2l8-6 5-5 2-3 7-1v-2l18-11 6-6 6-3 6-6h4v-2l24-18 18-14 10-6 12-7 11-9 3-1 2-4 5-5 6-7 6-5 5-6 18-18 2-3h2v-2l5-5 9-8 9-7z" fill="#950D19"/>
  <path transform="translate(677,890)" d="m0 0h4v2h2l9 26 11 27 14 30 10 28 7 20 5 12 3 10 9 21 8 16 10 23-1 2-10-18-12-25-8-16-13-28-12-29-6-16-18-42-10-25-2-10-1-6z" fill="#A0D9DF"/>
  <path transform="translate(476,969)" d="m0 0h2l7 23 17 58 8 27 10 25 12 26 12 22 8 16 11 24 7 13-1 4-4-5-14-26-8-14-9-16-11-23-15-33-9-21-7-22-2-12-5-20-5-21-4-16z" fill="#A0DBE1"/>
  <path transform="translate(1396,301)" d="m0 0h2l-2 5-11 12-4 5-3 5-5 7-8 7-22 22-8 7-10 9-11 7-10 9h-2v2l-14 10-5 4-14 11-9 5-13 8-2-1 9-10h2v-2h2l2-4 10-7 11-8 18-14 14-12 11-9 7-7 8-7 8-8 8-7 7-7 8-7 13-13 8-7z" fill="#A0E8EE"/>
  <path transform="translate(1329,478)" d="m0 0 4 2 14 15 12 13 9 11 14 18 13 18 52 78 7 11 15 25 8 15-1 2-6-8-6-10-7-10-12-19-23-34-13-18-9-12-3-7-10-11-9-11-12-16-14-18-10-13-6-9-7-10z" fill="#9FDEE4"/>
  <path transform="translate(1592,1231)" d="m0 0h3v14l-2 23-6 41-6 24-10 35-14 40-6 15-5 9-1-4 6-17 4-15 7-22 8-30 8-36 5-27 4-31 1-14z" fill="#A3ABB1"/>
  <path transform="translate(657,1334)" d="m0 0 4 1 8 10 12 17 9 11 13 18 16 21 8 10 9 11 28 28 5 7v3l-4-1-39-39-11-9-10-11-10-14-11-16-6-9-11-16-9-14-2-7z" fill="#A3ACB2"/>
  <path transform="translate(668,540)" d="m0 0h5l1 3-16 5-12 3-22 8h-2l1 33 2 26 9 58 5 25 1 7h-3l-5-15-5-19-3-22-3-23-4-14-2-21v-39l5-4 18-4 22-6z" fill="#A3ABB1"/>
  <path transform="translate(814,1694)" d="m0 0 6 1v2h-2l-2 4-14 8-5 3-32 16-21 10-12 5-18 8-17 8h-3l-1 2h-3l-1 3v-2h-2l-1 2-9 3h-3l2-4 3-2h-5l4-3 29-13 24-11 20-9 18-8 16-8 23-12z" fill="#940D18"/>
  <path transform="translate(396,661)" d="m0 0 1 2-5 13-7 20-11 27-8 19-10 24-8 21-8 22-9 39-2 2v-9l14-60 10-26 14-36 10-25 7-17 10-14z" fill="#A0DDE3"/>
  <path transform="translate(1036,1367)" d="m0 0h2l-2 4-9 8-1 2h-2v2l-10 8-7 8-15 15-2 3 1 5 22 22 7 8 10 11 8 10 14 17 9 10 6 2-6 3v-2l-5-1-14-12-7-8-12-12-11-14-6-8-12-14-9-10-3-5 2-4 8-8 7-8 15-14 10-8z" fill="#A0D8DE"/>
  <path transform="translate(464,576)" d="m0 0 1 4-7 30-8 39-3 43-6 38-2 27-2 7-2-4-1-15v-19l7-52 5-35 3-19 5-14 4-16 5-12z" fill="#A4ABB1"/>
  <path transform="translate(835,1232)" d="m0 0 5 1 4 6 9 12 11 16 13 18 10 13 13 19 13 17 11 14 11 13 11 14-1 2-10-10-7-8-11-12-9-11-33-39-12-15-11-19-6-10-9-13-2-5z" fill="#A0DDE3"/>
  <path transform="translate(1389,1486)" d="m0 0h29l25 2 20 3 5 2v1h-13l-21-2-23-1h-11l-22 3-26 5-24 6-29 9-20 8-12 5-12 7-8 4-15 10-11 7-17 12-11 9-4 2 6-7 20-15 6-5 7-3 9-7 11-7 4-2 1-2 9-3 7-4 23-10 15-6 15-3 17-5 5-2h-8l-12 3h-5l4-2 25-6 30-5z" fill="#A4ABB1"/>
  <path transform="translate(1409,1283)" d="m0 0 3 1-33 21-81 54-20 13-17 11-25 15-13 8-8 4-2-1v-9l4-2 5 1 12-5 7-6 7-4 10-6 7-4 6-4 14-9 10-7 12-7 10-6 10-7 4-1v-2l9-6 6-3 5-4 13-8h3v-2l4-2 2-2 11-6 4-2h3v-2l6-4h3v-2l7-4z" fill="#940D18"/>
  <path transform="translate(1432,1321)" d="m0 0 2 4v79l-1 45-1 3-4-1-2-6v-90l-1-30 7-2z" fill="#9FEBF1"/>
  <path transform="translate(1158,1292)" d="m0 0 5 1 5 8 5 17 10 24 8 16 13 24 8 16 2 8v5h-4l-8-10-4-11-16-33-11-25-6-15-6-21z" fill="#A0DAE0"/>
  <path transform="translate(1355,944)" d="m0 0 2 3 4 9 7 24 12 41 10 41 6 33 3 15v8l-2-4-9-35-8-31-14-49-2-12-7-21-3-12v-3h-2l1-4h2z" fill="#A0D7DD"/>
  <path transform="translate(1068,1104)" d="m0 0 4 1 13 25 15 33 8 19 8 20 13 31 1 5h-2l-12-21-9-17-7-17-6-13-13-29-4-13-5-10-4-10z" fill="#A0DAE0"/>
  <path transform="translate(1158,600)" d="m0 0 3 1 9 12 8 11 18 27 14 18 14 19 11 18 9 14 10 16 3 10 4 6-1 2-3-3-5-9-6-9-6-11-12-18-5-7-4-4-4-6-9-11-7-11-10-15-10-14-6-7v-2h-2l-6-9-5-11-2-2z" fill="#9FE2E8"/>
  <path transform="translate(546,1513)" d="m0 0 7 6 5 3v2h3v2l4 2 9 7 6 3-1-3 4 2 13 10 12 8 16 11 10 7 18 11 16 14-4 1-16-8v-2l-6-2-20-12-14-9-19-14-9-8-14-11-10-9-8-7z" fill="#A4ABB1"/>
  <path transform="translate(864,1676)" d="m0 0h10l39 6 21 4 27 4 33 3 3 1-1 3h-31l-37-4-25-5-39-6-3-2 1-3z" fill="#A4ABB1"/>
  <path transform="translate(911,1648)" d="m0 0h6v2h-2v3l-5 3-1 3-4 2-2 6-4 4-5 3-1 2h-2v2l4 1-13-1-8-1h-10l-2 1v2l5 2-2 2-13-3-4-3 17-7 17-10 22-12z" fill="#940D18"/>
  <path transform="translate(1464,1200)" d="m0 0h27l1 2-7 3-24 2-28 4-12 3v15l3 30v13l-1 2 2 1-5 3-2-1-1-18-1-35-3-17 1-1z" fill="#A4ABB1"/>
  <path transform="translate(1625,541)" d="m0 0h21l16 1v1l-9 2h-10v-2h-4l-1 2h4v7l3 1-5-1-8-3h-9l-19 3-21 4-20 4-44 12-5 2h-4l1-3 8-4 16-5 35-8 37-10z" fill="#A3ACB2"/>
  <path transform="translate(1707,921)" d="m0 0h13l15 2 11 4 20 5 14 7 9 8 2 4v18l-2 10-6 17-1-4 3-14v-16l-2-2-2 1-3-6-13-12-14-10-4-3-9-3-25-4-6-1z" fill="#F6F8F9"/>
  <path transform="translate(564,846)" d="m0 0h5l-1 2-25 10-17 6-58 18-8 2-6 3-6-2-1-3 4-3 25-7 80-24z" fill="#9FE1E7"/>
  <path transform="translate(957,1622)" d="m0 0 11 3 15 7 36 18 11 6 25 15 3 3v2l-6-1-27-14-58-29-11-6-5-1 4-2z" fill="#9FDFE5"/>
  <path transform="translate(234,848)" d="m0 0 1 2-11 19-13 25-8 16-8 18-4 11h-2l-2 4-3-3-3 9-3 1-3-1-1 2 1-7 8-16 7-11 12-19 13-22 9-13z" fill="#9FDEE4"/>
  <path transform="translate(1103,965)" d="m0 0 2 1-10 9-10 7-13 10-9 7-7 5-14 7-9 5-3 6 1 7h-2l-2-5-3-3-1-7 5-4 13-8 23-13 10-7 9-5 17-10z" fill="#A0E2E8"/>
  <path transform="translate(1055,1503)" d="m0 0h6l-1 4-13 9-16 9-15 10-10 7-15 10-20 12-38 22-10 5-5-2 3-1 6-1 1-3h4l4-4 10-6 10-7 12-7 16-10 5-3 6-3 10-7 13-8 9-5 5-4h2v-2l5-1v-2l12-8z" fill="#950D19"/>
  <path transform="translate(329,1123)" d="m0 0h1l1 5 2 2 1 7h2l8 34 14 56v5l-2 1-7-18-11-37-5-20-1-12-1-2v-11h-2l-1-7z" fill="#A0DAE0"/>
  <path transform="translate(916,1491)" d="m0 0 2 1-6 9-11 14-12 15-10 14-3 3-3 8 1 5 10 6 24 16 9 5v1h-7l2 4 5 2-1 3h-2v-2l-4-1-11-8-14-11-13-11-5-4 1-6 3-3h2l1-5 8-12 12-16 10-13 9-12z" fill="#A4ABB1"/>
  <path transform="translate(948,859)" d="m0 0h2l8 11 11 23 12 28 4 10 14 24 3 6-1 3-5-6-8-15-6-8-13-22-11-27-9-21z" fill="#A4ABB1"/>
  <path transform="translate(1572,942)" d="m0 0 2 3 4 13 1-9h1l8 46 7 58v22h-2l-1-3-2-16-1-2-2-15-1-27-8-38-5-25z" fill="#A4ABB1"/>
  <path transform="translate(1182,1428)" d="m0 0 3 1-23 15-27 18-26 16-20 12-19 11-7 1-4-4 3-2h10l6-4 5-2 20-14 6-4 6-2v-2l6-3 16-10 2-2 11-6 3-1v-2l11-6h2v-2h3v-2l6-3z" fill="#950D19"/>
  <path transform="translate(1504,717)" d="m0 0 2 1-10 8-12 11-15 11-10 9-8 7-14 12-13 11-7 5h-2v2l-9 7-11 8-8 6-17 12-9 6-2-1 8-6 10-7h2l1-3 9-5 7-6 8-6 5-5 14-15 11-8 18-12 16-13 12-11 14-11z" fill="#950D19"/>
  <path transform="translate(1373,323)" d="m0 0 2 1-10 10-1 2h-2v2l-27 27-10 8-9 8-11 8-13 12-4 3h-2v2l-13 10-8 6-6 3-3 3-2-1 2-4h2l2-4 10-7 11-8 18-14 14-12 11-9 7-7 8-7 8-8 8-7 7-7 8-7z" fill="#F4F5F5"/>
  <path transform="translate(1e3 1445)" d="m0 0 8 6 5 6 7 4 1-2 8 9 18 22 9 10 6 2-6 3v-2l-5-1-14-12-7-8-12-12-11-14-6-8z" fill="#A0DDE3"/>
  <path transform="translate(1321,856)" d="m0 0 3 1-9 6-16 12-14 10-11 7-26 18-5 2v2l-11 7-12 9-9 6-10 7-15 10-10 7-12 7-15 10-4 3-3-1 10-7 16-10 3-3 6-3 10-7 14-10 10-7 11-7 9-7 18-12 19-13 11-8 15-10 13-11 10-7z" fill="#950D19"/>
  <path transform="translate(1389,1486)" d="m0 0h29l25 2 20 3 5 2v1h-13l-21-2-23-1h-11l-22 3h-20l-1-2 13-3 1-1z" fill="#A3ABB1"/>
  <path transform="translate(1432,1321)" d="m0 0 2 4v79l-1 45-1 3-4-1-2-6v-90l-1-30h2l1 2 1 40v83h2v-127z" fill="#A4ABB1"/>
  <path transform="translate(1e3 1596)" d="m0 0h2v3h-2l-2 4-4 5h-2v2l-5 3h-2l1 3h-2l-1 3h-2l-1 4-6 1-2 4-9-3-7-2 1-3 16-9 18-10z" fill="#940D18"/>
  <path transform="translate(1291,1233)" d="m0 0h5v2l-17 9-12 4-9 4-15 5-18 7-13 4-4 2-4-1 16-8 27-12 28-11z" fill="#A4ABB1"/>
  <path transform="translate(1411,778)" d="m0 0h3l-2 5-21 14-9 5h-2v2l-12 6-9 7-8 4-7 4-3-1 9-8 15-10 17-12 14-9 7-4z" fill="#950D19"/>
  <path transform="translate(477,1346)" d="m0 0 3 1-12 9-16 11-9 7-8 6-1 14-4-1-5-4-2-4v-8l18-10 13-8 14-8z" fill="#A4ABB1"/>
  <path transform="translate(848,449)" d="m0 0v3l-9 11-18 18-8 7-14 10-6 3h-2l-2 4v-4l-2-1h2v-2l12-9 15-13 6-5 6-7 8-7 10-7z" fill="#A0D6DC"/>
  <path transform="translate(678,1363)" d="m0 0 5 1 12 16 14 19 12 16 5 9 1 5-5-3-6-5-7-8-6-10-5-9-3-5-5-7v-2h-2l-3-5-7-11z" fill="#9FE3E9"/>
  <path transform="translate(1163,347)" d="m0 0 10 3 16 11 16 10 8 6v3l-8-1-10-5-14-10-20-14v-2z" fill="#A0DAE0"/>
  <path transform="translate(1571,1351)" d="m0 0 2 3-1 11-15 43-6 15-5 9-1-4 6-17 4-15 6-18h2l2-11 5-15z" fill="#A0D8DE"/>
  <path transform="translate(564,846)" d="m0 0h5l-1 2-25 10-17 6-29 9-23 7-3-1 13-5 24-7 12-4h2v-2l-22 6-4-1 60-18z" fill="#A3ABB1"/>
  <path transform="translate(1625,541)" d="m0 0h21l16 1v1l-9 2h-10v-2h-4l-1 2h4v7l3 1-5-1-8-3h-9l-19 3-11 2-4-1 3-2 10-2 8-2-7-1 4-2z" fill="#A3ABB1"/>
  <path transform="translate(909,661)" d="m0 0 2 1-14 10-12 8-10 7-9 6-10 7-13 9-16 10-18 10-16 8-17 9-17 10-7 4-8 5-2-1 11-7 17-10 16-9 33-17 13-8 16-11 10-7 15-10 11-7 9-6 14-10z" fill="#950D19"/>
  <path transform="translate(1758,937)" d="m0 0 5 1v2h3v2h2v2l4 1 7 5 4 1 5-5 3 5v18l-2 10-6 17-1-4 3-14v-16l-2-2-2 1-3-6-13-12-7-5z" fill="#A0DDE3"/>
  <path transform="translate(367,1260)" d="m0 0 3 3 8 15 4 10 16 32 8 18-1 2-6-9-12-22-13-28-7-18z" fill="#A4ABB1"/>
  <path transform="translate(683,799)" d="m0 0 2 1-14 8-17 11-8 5-20 12-14 8-25 13-9 5-2-1 1-2h4v-2h3l1-2h3l1-2 7-4h2v-2l7-4 8-5 7-3 7-4 10-5 9-6 7-4 16-9 10-6z" fill="#950D19"/>
  <path transform="translate(873,1679)" d="m0 0h15l23 4 20 4 41 6v2l-28-2-20-3-13-3-34-5-4-1z" fill="#9FEBF1"/>
  <path transform="translate(917,787)" d="m0 0 4 2 11 27 7 18 1 11-4-4-6-11-4-14-7-15v-6h-2z" fill="#A0DBE1"/>
  <path transform="translate(823,1629)" d="m0 0h4l-1 5 4 3-2 5-4 2 1 3-12 6-15 9-2-1 8-8 3 1v-2h3l3-11 4-6z" fill="#961723"/>
  <path transform="translate(948,859)" d="m0 0h2l8 11 11 23 3 12 6 13-1 4-6-9-6-15-5-11-4-9-1-4h-2l-5-13z" fill="#9FDFE5"/>
  <path transform="translate(651,1245)" d="m0 0h2l-1 4-3 2-9 3-10 8-7 3-5 9-4 1-4-3 1-6 8-5 20-11 7-4z" fill="#9FE0E6"/>
  <path transform="translate(1036,1367)" d="m0 0h2l-2 4-9 8-1 2h-2v2l-10 8-7 8-15 15-2 1v-3l-2-1 14-15 10-9 13-11z" fill="#A4ABB1"/>
  <path transform="translate(625,638)" d="m0 0h1l1 7 1 5h2l6 37 4 19-1 3-3-3-7-24v-19h-2l-2-16z" fill="#A1C5CB"/>
  <path transform="translate(903,1686)" d="m0 0h8l17 4 25 3 22 1 1-2 18 1 3 1-1 3h-31l-37-4-25-5z" fill="#A4ABB1"/>
  <path transform="translate(607,1564)" d="m0 0h6l3 2v3h3v2l5 2 8 4v2l5 2 7 3-5-5 1-2 13 8 7 6 8 7-4 1-16-8v-2l-6-2-20-12-14-9z" fill="#A4ABB1"/>
  <path transform="translate(916,1491)" d="m0 0 2 1-6 9-11 14-12 15-10 14-3 3-3 8v5h-3l-2-3 1-4 4-2 1-5 8-12 12-16 10-13 9-12z" fill="#A4ABB1"/>
  <path transform="translate(967,1631)" d="m0 0 9 3 19 9 40 20 1-1-1-2 5 2 15 9 3 3v2l-6-1-27-14-58-29z" fill="#A4ABB1"/>
  <path transform="translate(738,1035)" d="m0 0 2 4 4 10 7 17 8 16 10 23-1 2-10-18-12-25-11-22 1-3 1 1z" fill="#A4ABB1"/>
  <path transform="translate(1309,382)" d="m0 0m-2 1 2 1-8 9-8 7-5 4h-2v2l-13 10-8 6-6 3-3 3-2-1 2-4h2l2-4 10-7 11-8 18-14z" fill="#F0F1F2"/>
  <path transform="translate(593,1550)" d="m0 0 6 2 6 3 5 4 9 5 4 4v2l6 2 10 5 6 8-7-2-6-4v-2l-6-2-7-4v-2h-3v-3l-9-2-7-6v-2l-5-2z" fill="#9FEBF1"/>
  <path transform="translate(437,788)" d="m0 0 4 4 6 18 2 17 1 16h-2l-4-17-3-15-2-7-2-11z" fill="#A4ABB1"/>
  <path transform="translate(464,576)" d="m0 0 1 4-7 30-4 17-4 2v-12l4-11 4-16 5-12z" fill="#A3B1B7"/>
  <path transform="translate(346,773)" d="m0 0 1 3-2 10 1 6-6 17-9 39-2 2v-9l14-60z" fill="#A3ABB1"/>
  <path transform="translate(843,1247)" d="m0 0 6 5 6 8 3 5 4 10 10 14 6 3 4 9 11 13 3 4-1 2-10-11-9-11-11-13-12-20-7-12-3-4z" fill="#A4ABB1"/>
  <path transform="translate(888,734)" d="m0 0 4 2 4 5 8 17 12 21-1 4-4-4-7-12v-3h-2l-5-10-9-17z" fill="#A0DBE1"/>
  <path transform="translate(941,317)" d="m0 0 1 3-5 12-12 25-4 2-1-1v-6l6-11 9-15z" fill="#A0D3D9"/>
  <path transform="translate(575,1702)" d="m0 0h2l-2 5-5 6h-2v2l-7 6-4 6-7 8-8 11-2-4 2-6 16-16 7-8z" fill="#A3ACB2"/>
  <path transform="translate(540,1155)" d="m0 0 3 3 5 7 1 1 1-4 13 28 7 13-1 4-4-5-14-26-8-14-3-5z" fill="#A4ABB1"/>
  <path transform="translate(541,1507)" d="m0 0 5 2 10 7 7 4 11 10 5 4 1 4-5-1-8-7-6-4v-2h-3v-2l-5-2-11-10z" fill="#9FE4EA"/>
  <path transform="translate(785,1486)" d="m0 0 5 2 11 9 12 11 8 7v2l4 2 8 7 1 4-7-4-17-16-15-14-8-7z" fill="#A4ABB1"/>
  <path transform="translate(817,591)" d="m0 0 3 3 9 19 10 19 2 4h2l1-4 7 17 3 8-1 3-6-8-11-21-10-19-9-18z" fill="#A4ABB1"/>
  <path transform="translate(264,1300)" d="m0 0 1 2-15 23-10 14-5 8-2 5-1-4-3 2 2-5 13-19 10-14z" fill="#A1CED4"/>
  <path transform="translate(1217,453)" d="m0 0 2 1-14 11-20 14-25 17-20 14-17 12-2-1 12-9 16-11 11-8 22-15 16-11z" fill="#950D19"/>
  <path transform="translate(1103,965)" d="m0 0 2 1-10 9-10 7-13 10-9 7h-3l6-8 4-1 5-5-2-2 15-9z" fill="#A4ABB1"/>
  <path transform="translate(749,1231)" d="m0 0 2 1-9 6-7 4-12 7-14 7-15 9-14 7-17 9-2-1 10-6 13-7 33-18 18-10z" fill="#950D19"/>
  <path transform="translate(1135,1627)" d="m0 0h2l-1 4-14 20-10 14-7 10-3 2 2-5 4-7 6-10 10-14 10-12z" fill="#A4ABB1"/>
  <path transform="translate(349,907)" d="m0 0h5l-1 2-19 6-18 2v-4h2v-2l19-3z" fill="#9FE3E9"/>
  <path transform="translate(1050,571)" d="m0 0 2 1-13 9-11 7-18 12-12 7-20 13-20 12h-3l10-7 19-12 18-11 16-10 12-8 14-9z" fill="#950D19"/>
  <path transform="translate(649,545)" d="m0 0 4 1-9 4-9 3-14 6-3 3-2-3 1-4 3-4 18-4z" fill="#9FE3E9"/>
  <path transform="translate(668,540)" d="m0 0h5l1 3-16 5-12 3-22 8-3-1 14-6 17-6h-8l4-2 12-3z" fill="#A4ABB1"/>
  <path transform="translate(1540,561)" d="m0 0h6l-1 4-26 7-5 2h-4l1-3 8-4 16-5z" fill="#A3B0B6"/>
  <path transform="translate(1104,1536)" d="m0 0m-1 1m-1 1m-1 1m-3 1 4 1v2l4 2 6 8 2 4-5-2-8-6v-2l-9 1-3-1-3 1v2h-4v2l-3 1v-3z" fill="#950D19"/>
  <path transform="translate(1128,567)" d="m0 0 5 1 8 7 7 9 1 4-7-2-3-3-6-5v-2h-2l-3-6z" fill="#A0E3E9"/>
  <path transform="translate(435,1372)" d="m0 0h2l-2 4-3 12-1 1h-6l-2-4v-8l7-4z" fill="#9FE4EA"/>
  <path transform="translate(1346,506)" d="m0 0 4 2 13 17 8 10 9 12 12 14 8 10-1 2-11-12-9-11-8-10-10-14-9-11z" fill="#A4ABB1"/>
  <path transform="translate(1665,545)" d="m0 0 5 5 1 7v11l-3 11-2 2 1-6 1-5h-2l-1-2z" fill="#A4ABB1"/>
  <path transform="translate(919,355)" d="m0 0 3 3 1 2-3 4 1 6 7 9-2 2 2 1v2l-4-2-8-7-2-4 1-7h2z" fill="#A4ABB1"/>
  <path transform="translate(562,1719)" d="m0 0v3l-2 6-1 5h-3l-1 4-1 2h-3v5h-3l-1 2-2 1 1 2-5-1 2-5 10-13 6-7z" fill="#930D18"/>
  <path transform="translate(1181,1352)" d="m0 0 2 1 11 23 15 30 3 2-1-10 2 2 1 11h-4l-8-10-4-11-16-33z" fill="#A4ABB1"/>
  <path transform="translate(1387,1070)" d="m0 0 2 2v3h2l1-2 5 26 2 11v8l-2-4-9-35z" fill="#A4ABB1"/>
  <path transform="translate(564,846)" d="m0 0h5l-1 2-25 10-7 2 3-3h-4l-9 2 3-3 31-9z" fill="#A4ABB1"/>
  <path transform="translate(877,310)" d="m0 0 3 1-15 5-48 14-4-1 30-9 2-2 4-2z" fill="#A4ABB1"/>
  <path transform="translate(1e3 1445)" d="m0 0 6 5 8 11 1 3h2l7 8 10 9 9 11 3 3-1 2-8-7-7-8-12-12-11-14-6-8z" fill="#A4ABB1"/>
  <path transform="translate(449,1368)" d="m0 0 2 1-3 3-7 6h-2l-1 7 3 1-2 6h-3l-2 7-4 3 1-6-5-4 1-2 7 4-1-6 1-8 5-4z" fill="#940D18"/>
  <path transform="translate(918,1342)" d="m0 0 5 5 7 8 9 11 7 9-1 2-10-10-7-8-11-12-2-4z" fill="#A4ABB1"/>
  <path transform="translate(468,905)" d="m0 0 9 6v2l4-2 3 1-13 6-2-1-5 1v-9z" fill="#950D19"/>
  <path transform="translate(1177,1587)" d="m0 0 2 1-8 8-8 6-7 6-5 5-11 12-1-2 1-3h2l2-5 10-13 2-1v3l4-2 5-5 8-6z" fill="#A4ABB1"/>
  <path transform="translate(1790,951)" d="m0 0h1v18l-2 10-6 17-1-4 3-14 1-15 1-4 2-2z" fill="#9FEBF1"/>
  <path transform="translate(726,527)" d="m0 0 4 1-19 7-12 3-13 1 2-2 9-3 15-4z" fill="#A4ABB1"/>
  <path transform="translate(1707,921)" d="m0 0h13l15 2 11 4 13 3-4 1 3 6-4-2-7-5-9-3-25-4-6-1z" fill="#A3ABB1"/>
  <path transform="translate(1051,500)" d="m0 0 4 2 2-2 15 15 8 11h-3l-19-19-7-6z" fill="#A4ABB1"/>
  <path transform="translate(618,1303)" d="m0 0 2 1-38 20-18 10-2-1 10-6 16-9 11-6 10-6z" fill="#950D19"/>
  <path transform="translate(1e3 1438)" d="m0 0 4 1 17 16 2 3v3l-5-2-5-5-12-13z" fill="#F4F9FA"/>
  <path transform="translate(907,1599)" d="m0 0 2 1-17 10-15 8-2-1 5-5 2 1 4-4 8-4v-3l7-2z" fill="#940D18"/>
  <path transform="translate(522,516)" d="m0 0 10 1 6 2-1 4-1 1h-8l-7-3-2-4z" fill="#A4ABB1"/>
  <path transform="translate(1095,319)" d="m0 0 7 1 21 8 11 4 8 5-3 1-24-10-8-3-10-4z" fill="#A4ABB1"/>
  <path transform="translate(1452,648)" d="m0 0 5 5 3 5v2h4l13 24-1 2-6-8-6-10-7-10-5-8z" fill="#A4ABB1"/>
  <path transform="translate(1077,1551)" d="m0 0v3l-2 5-5 3-6 3h-6l-4 3-2-2 19-11z" fill="#940D18"/>
  <path transform="translate(447,1367)" d="m0 0m-1 1m-3 1h3l-2 4-5 4-4 3-1 14-4-1-4-4 5-1 3-12 3-4-5 1 4-3h2v2z" fill="#A4ABB1"/>
  <path transform="translate(957,1622)" d="m0 0 11 3 15 7 12 6-3 1-21-10-6-2v3l-6-2-3-2-5-1 4-2z" fill="#A4ABB1"/>
  <path transform="translate(1306,267)" d="m0 0 4 1v1l-16 4-20 7-5 2-4-1 6-5 5-1 7-1 17-6z" fill="#A4ABB1"/>
  <path transform="translate(987,1412)" d="m0 0h3v8l4 7v2l-5-1-6-7-1-4z" fill="#E8EEF0"/>
  <path transform="translate(1294,430)" d="m0 0 2 1-4 5h2v4l3 1 7 8 7 6 7 8h-3l-19-19-8-5 1-5z" fill="#930D18"/>
  <path transform="translate(1022,1584)" d="m0 0h2l-1 7h-3v2l-8 4-5-1v-3z" fill="#950D19"/>
  <path transform="translate(1599,546)" d="m0 0h12l-1 2-8 2-13 3h-8l3-1v-2z" fill="#9FDEE4"/>
  <path transform="translate(844,1126)" d="m0 0 4 1h-4zm-1 1m-2 1h2v2l-28 17-7 4-2-1 17-11 15-9z" fill="#950D19"/>
  <path transform="translate(1204,1404)" d="m0 0 5 5 2 3-15 11-9 5-2-1 6-5 7-3 5-5 1-2z" fill="#930D18"/>
  <path transform="translate(312,957)" d="m0 0h1l2 12-1 10-3 5-3 2 1-3z" fill="#930D18"/>
  <path transform="translate(1033,1026)" d="m0 0 4 2h2v2l3 1 2 5v6l-7-5-4-9z" fill="#950D19"/>
  <path transform="translate(634,687)" d="m0 0h2l4 19-1 3-3-3-4-13 1-4z" fill="#A4ABB1"/>
  <path transform="translate(1776,953)" d="m0 0 5 5-1 7-6 17-1-4 3-10z" fill="#950D19"/>
  <path transform="translate(668,540)" d="m0 0h5l1 3-13 4-6-2 2-1v-2z" fill="#A2BCC2"/>
  <path transform="translate(1233,479)" d="m0 0 2 1-12 11-8 7-10 8-6 5-2-1 10-9 10-8 11-10z" fill="#950D19"/>
  <path transform="translate(1275,407)" d="m0 0 2 1-10 7-8 6-1 2h-2v2l-8 7-6 5-2-1 16-15 7-7 8-4z" fill="#950D19"/>
  <path transform="translate(1177,360)" d="m0 0 5 2 15 10 10 5 5-1 1 4-8-1-10-5-14-10z" fill="#A4ABB1"/>
  <path transform="translate(551,1729)" d="m0 0 1 3-6 8-4 6-2-4 2-6 5-5z" fill="#A0DAE0"/>
  <path transform="translate(582,840)" d="m0 0h5l-3 3-12 5-11 3 1-2 6-2-3-2z" fill="#950D19"/>
  <path transform="translate(660,1328)" d="m0 0 2 1-1 4 4 5-1 2-4-5h-3l1 5h-2l-4-4h-6l5-4z" fill="#950D19"/>
  <path transform="translate(937,392)" d="m0 0 5 3 12 12 7 8 6 7-4-2-9-8-7-8-8-9-2-1z" fill="#A4ABB1"/>
  <path transform="translate(1053,999)" d="m0 0 7 1-4 4-22 11 1-3 6-3 9-7z" fill="#A4ABB1"/>
  <path transform="translate(557,463)" d="m0 0 2 1-8 8-11 9-10 10v-3l16-16z" fill="#A4ABB1"/>
  <path transform="translate(752,1454)" d="m0 0 4 2 7 7v2l6 3v3l-4-1-12-12z" fill="#A0D6DC"/>
  <path transform="translate(464,576)" d="m0 0 1 4-4 18-1-3-3 1 2-9z" fill="#A3AFB5"/>
  <path transform="translate(1467,794)" d="m0 0 2 1-12 10-13 9-4 3-2-1 11-9 14-10z" fill="#950D19"/>
  <path transform="translate(621,1282)" d="m0 0h2l2 4h3v2l2 1 2 4 5-1 4-1-3 3-6 2-8-6-3-7z" fill="#950D19"/>
  <path transform="translate(1235,441)" d="m0 0 4 1-8 7h-2v2l-7 4-1-3z" fill="#A4D4DA"/>
  <path transform="translate(1356,834)" d="m0 0 2 1-15 10-14 9-2-1 13-9 4-2 3-3z" fill="#950D19"/>
  <path transform="translate(1122,1219)" d="m0 0 3 4 5 14-2 1-8-14 1-2z" fill="#A4ABB1"/>
  <path transform="translate(1644,1162)" d="m0 0h10l2 2-1 4h-6l-5-5z" fill="#A4ABB1"/>
  <path transform="translate(1100,1541)" d="m0 0h2v2l4 2 6 8 2 4-5-2-2-4-4-2z" fill="#A4ABB1"/>
  <path transform="translate(264,1300)" d="m0 0 1 2-11 17-3-1 2-5z" fill="#A3ACB2"/>
  <path transform="translate(625,638)" d="m0 0h1l1 7 2 5v13h-2l-2-16z" fill="#9FEBF1"/>
  <path transform="translate(945,1688)" d="m0 0 27 3 4 1-1 3-8-2-22-3z" fill="#A3B1B7"/>
  <path transform="translate(1305,383)" d="m0 0 2 1-10 9-13 10-2-1 8-7 10-8z" fill="#950D19"/>
  <path transform="translate(902,1582)" d="m0 0 12 3 3 3h-7l1 3-4-2v-3l-5-1z" fill="#9FE4EA"/>
  <path transform="translate(998,1402)" d="m0 0h2l-2 4-7 9-1-3-2-1 6-7z" fill="#A0D3D9"/>
  <path transform="translate(1368,1490)" d="m0 0h8l-2 3-16 1-1-2z" fill="#9FEBF1"/>
  <path transform="translate(1790,951)" d="m0 0h1v18l-1 7h-1l-1-12-1-5 2-2z" fill="#A4ABB1"/>
  <path transform="translate(1374,357)" d="m0 0 2 1-1 2h-2l-2 4-6 7-8 7-2-1 8-9 8-7z" fill="#950D19"/>
  <path transform="translate(531,1758)" d="m0 0h2l-2 5-9 12-1-3 4-7 5-5z" fill="#A0D5DB"/>
  <path transform="translate(1178,1577)" d="m0 0v3l-19 19v-3l13-13z" fill="#A2C4CA"/>
  <path transform="translate(1030,1035)" d="m0 0 2 4h2l4 5-1 3-5 4v-9l-2-4z" fill="#950D19"/>
  <path transform="translate(450,1363)" d="m0 0h2v2l-12 7h-2l1-4 9-4z" fill="#A0DBE1"/>
  <path transform="translate(618,1287)" d="m0 0 4 4 3 5 2 2-4 4-2-1-1-8z" fill="#950D19"/>
  <path transform="translate(322,1011)" d="m0 0 2 1v8h-2v-4h-2v11h-1l-1-14z" fill="#950D19"/>
  <path transform="translate(204,1471)" d="m0 0 8 3 1 4-6-1-4-3z" fill="#A4ABB1"/>
  <path transform="translate(425,1377)" d="m0 0h2l2 7-3 3-3-2v-6z" fill="#FAFCFC"/>
  <path transform="translate(1417,1262)" d="m0 0h1l1 15-7 6 4-10z" fill="#950D19"/>
  <path transform="translate(1655,557)" d="m0 0 7 1 1 7h-3l-2 1z" fill="#A4ABB1"/>
  <path transform="translate(367,1260)" d="m0 0 3 3 5 9-1 4-4-5-3-8z" fill="#A2B8BE"/>
  <path transform="translate(458,595)" d="m0 0h2v7l-1 4-3-1v-9z" fill="#A0D4DA"/>
  <path transform="translate(873,1550)" d="m0 0 1 2-1 8h-3l-2-3 1-4z" fill="#A2B9BF"/>
  <path transform="translate(234,848)" d="m0 0 1 2-10 17-2-2 10-16z" fill="#A4ABB1"/>
  <path transform="translate(629,650)" d="m0 0h1l3 19v5l-2-2-1-8-1-1z" fill="#A4ABB1"/>
  <path transform="translate(237,1340)" d="m0 0v3l-4 9-1-4-3 2 2-5 3-4z" fill="#A2C2C8"/>
  <path transform="translate(1548,1419)" d="m0 0h3l1 2-6 11-1-4z" fill="#A2BAC0"/>
  <path transform="translate(240,1332)" d="m0 0h4l-2 5-5 4h-2l2-5z" fill="#A1CBD1"/>
  <path transform="translate(1788,976)" d="m0 0 1 3-6 17-1-4 3-12z" fill="#A1C9CF"/>
  <path transform="translate(801,494)" d="m0 0 2 1-10 6h-2l-2 4v-4l-2-1h2v-2l3 1z" fill="#A4ABB1"/>
  <path transform="translate(526,519)" d="m0 0h12v3h-10z" fill="#9FE3E9"/>
  <path transform="translate(1387,1070)" d="m0 0 2 2v3h2l1-2-1 9h-2l-2-7z" fill="#A3B3B9"/>
  <path transform="translate(1071,984)" d="m0 0h5l-6 7-2 1-2-2 3-4z" fill="#9FE3E9"/>
  <path transform="translate(1749,929)" d="m0 0 10 1-4 1 3 6-4-2-5-5z" fill="#A1D1D7"/>
  <path transform="translate(450,617)" d="m0 0 3 1v10l-3 1z" fill="#9FE5EB"/>
  <path transform="translate(465,1420)" d="m0 0 2 1 1 4v2 3l-7-6z" fill="#950D19"/>
  <path transform="translate(540,855)" d="m0 0 1 2-9 3-5 1-1-2z" fill="#9FEBF1"/>
  <path transform="translate(1284,270)" d="m0 0 3 1-4 4-7 1v-2z" fill="#A1D1D7"/>
  <path transform="translate(1050,1567)" d="m0 0 2 1-5 5-5 2-3-1z" fill="#930D18"/>
  <path transform="translate(1199,1418)" d="m0 0v3l-12 7-2-1 6-5 7-3z" fill="#950D19"/>
  <path transform="translate(879,729)" d="m0 0h4l1 4-5 1-2-1v-3z" fill="#920D17"/>
  <path transform="translate(894,721)" d="m0 0 2 1-3 4-1 7-4-5v-2z" fill="#950D19"/>
  <path transform="translate(1332,899)" d="m0 0h2l2 11-3-3v-3l-4-2z" fill="#950D19"/>
  <path transform="translate(1100,1541)" d="m0 0h2v2l4 2 1 5-4-1z" fill="#D3D6D9"/>
  <path transform="translate(1483,1459)" d="m0 0h6l3 2v2l-8-1z" fill="#A3B4BA"/>
  <path transform="translate(844,1126)" d="m0 0 4 1h-4zm-1 1m-2 1h2v2l-8 5-2-1z" fill="#961E29"/>
  <path transform="translate(517,498)" d="m0 0 1 2 2 1-6 7-1-3z" fill="#A4ABB1"/>
</svg>
